<?xml version="1.0" encoding="UTF-8" ?>
<!DOCTYPE svg PUBLIC "-//W3C//DTD SVG 1.1//EN" "http://www.w3.org/Graphics/SVG/1.1/DTD/svg11.dtd">
<svg width="313pt" height="96pt" viewBox="0 0 313 96" version="1.1" xmlns="http://www.w3.org/2000/svg">
<g id="#ffffffff">
</g>
<g id="#f2a440ff">
<path fill="#f2a440" opacity="1.00" d=" M 1.80 9.09 C 8.30 9.12 14.80 8.79 21.29 9.13 C 21.69 18.79 21.32 28.47 21.50 38.14 C 28.88 28.62 35.82 18.77 43.03 9.12 C 50.83 9.03 58.64 9.08 66.44 9.10 C 66.46 10.32 66.07 11.40 65.29 12.34 C 57.27 23.41 48.90 34.23 41.10 45.45 C 50.05 58.26 58.75 71.25 67.42 84.25 C 67.10 85.98 65.28 85.41 64.03 85.54 C 57.51 85.50 50.98 85.55 44.46 85.50 C 39.17 77.75 33.85 70.03 28.74 62.17 C 26.30 65.41 23.56 68.50 21.58 72.04 C 21.26 76.45 21.56 80.89 21.46 85.31 C 14.87 85.67 8.25 85.62 1.66 85.34 C 1.72 59.92 1.43 34.50 1.80 9.09 Z" />
<path fill="#f2a440" opacity="1.00" d=" M 79.96 9.08 C 86.50 9.54 93.34 8.09 99.69 9.86 C 96.64 14.14 93.60 18.43 90.41 22.61 C 89.75 23.90 88.19 23.45 87.03 23.58 C 81.47 23.46 75.90 23.75 70.35 23.35 C 72.48 18.00 76.79 13.84 79.96 9.08 Z" />
<path fill="#f2a440" opacity="1.00" d=" M 70.21 27.25 C 76.73 26.64 83.30 26.87 89.83 27.10 C 90.38 38.70 89.90 50.33 90.06 61.95 C 90.00 69.65 90.24 77.36 89.90 85.06 C 83.91 85.41 77.90 85.22 71.90 85.23 C 69.80 85.71 70.24 83.26 70.15 82.04 C 70.20 63.77 70.09 45.51 70.21 27.25 Z" />
</g>
<g id="#4b4140ff">
<path fill="#4b4140" opacity="1.00" d=" M 200.12 9.14 C 205.06 9.01 210.01 9.11 214.96 9.05 C 216.61 9.12 218.45 8.82 219.85 9.95 C 216.75 14.54 213.31 18.89 210.18 23.46 C 203.93 23.60 197.66 23.68 191.42 23.47 C 191.23 23.18 190.87 22.61 190.69 22.32 C 193.61 17.78 197.05 13.59 200.12 9.14 Z" />
<path fill="#4b4140" opacity="1.00" d=" M 298.12 9.22 C 305.05 7.73 312.15 13.96 311.50 21.04 C 311.34 27.90 304.06 33.26 297.45 31.45 C 290.99 30.07 286.94 22.47 289.50 16.35 C 290.88 12.69 294.26 9.88 298.12 9.22 M 293.43 13.44 C 288.98 17.43 289.75 25.13 294.64 28.42 C 294.77 23.99 294.69 19.56 294.71 15.13 C 298.10 15.40 301.87 14.39 305.00 16.02 C 307.67 18.28 306.03 22.56 302.77 23.12 C 304.17 24.62 305.43 26.26 306.64 27.92 C 309.64 24.64 310.99 19.54 308.51 15.57 C 305.66 10.23 297.64 9.09 293.43 13.44 M 296.64 16.73 C 296.63 18.34 296.63 19.94 296.63 21.54 C 299.24 21.22 303.90 22.72 304.46 18.94 C 303.49 15.56 299.19 17.07 296.64 16.73 M 296.50 23.29 C 296.59 25.38 296.63 27.46 296.64 29.55 C 299.31 30.20 302.07 30.01 304.69 29.21 C 303.07 26.03 300.81 21.91 296.50 23.29 Z" />
<path fill="#4b4140" opacity="1.00" d=" M 116.93 31.80 C 121.74 27.95 127.61 24.76 133.99 25.52 C 139.85 25.72 144.79 29.45 147.90 34.20 C 152.26 30.37 157.17 26.60 163.07 25.67 C 169.00 24.80 175.71 26.52 179.42 31.49 C 183.36 36.35 183.96 42.89 183.86 48.92 C 183.73 60.87 184.07 72.84 183.70 84.77 C 177.36 85.84 170.58 85.02 164.07 85.15 C 163.63 73.08 164.21 60.98 163.75 48.91 C 163.60 46.48 163.06 43.28 160.26 42.65 C 156.72 41.56 153.19 43.12 150.34 45.15 C 150.36 58.50 150.52 71.84 150.26 85.18 C 143.73 85.30 137.20 85.23 130.67 85.23 C 130.12 73.50 130.74 61.74 130.34 50.00 C 130.12 47.42 130.06 43.79 127.12 42.77 C 123.54 41.44 119.97 43.16 116.94 44.98 C 116.86 58.33 116.96 71.68 116.88 85.03 C 110.31 85.37 103.71 85.38 97.14 85.03 C 97.06 66.68 97.15 48.33 97.09 29.98 C 97.11 28.64 96.87 26.57 98.95 27.04 C 104.91 26.91 110.87 27.00 116.83 27.17 C 116.86 28.72 116.89 30.26 116.93 31.80 Z" />
<path fill="#4b4140" opacity="1.00" d=" M 191.11 27.16 C 197.65 27.10 204.21 26.68 210.74 27.23 C 210.76 46.40 210.95 65.58 210.65 84.73 L 210.06 85.13 C 203.75 85.37 197.42 85.26 191.11 85.14 C 190.84 65.82 190.84 46.48 191.11 27.16 Z" />
<path fill="#4b4140" opacity="1.00" d=" M 218.72 29.21 C 217.84 28.14 218.33 26.74 219.88 27.06 C 226.84 26.99 233.80 26.91 240.76 27.19 C 243.88 32.11 247.10 36.97 250.44 41.75 C 253.61 36.82 256.92 31.97 260.16 27.09 C 265.77 26.98 271.39 27.09 277.02 27.01 C 278.89 27.02 280.86 26.86 282.57 27.81 C 275.95 37.26 268.85 46.36 262.15 55.75 C 268.43 64.20 274.46 72.82 280.70 81.30 C 281.51 82.45 282.44 83.68 282.32 85.19 C 274.90 85.27 267.47 85.26 260.05 85.20 C 256.73 80.17 253.39 75.16 250.07 70.14 C 246.68 75.17 243.20 80.14 239.83 85.18 C 232.61 85.10 225.32 85.62 218.14 84.94 L 217.91 83.90 C 224.40 74.46 231.50 65.43 238.18 56.11 C 231.72 47.12 225.16 38.21 218.72 29.21 Z" />
</g>
</svg>
